<svg xmlns="http://www.w3.org/2000/svg" fill="none" viewBox="0 0 24 24"><path fill="#292929" fill-rule="evenodd" d="M14.677 19.703c-.992 1.985-2.04 2.547-2.677 2.547s-1.685-.562-2.677-2.547C8.472 18 7.873 15.61 7.767 12.875h8.466c-.106 2.736-.705 5.126-1.556 6.828Zm1.556-8.578H7.767c.106-2.736.705-5.126 1.556-6.828.992-1.985 2.04-2.547 2.677-2.547s1.685.562 2.677 2.547c.851 1.702 1.45 4.092 1.556 6.828Zm1.751 1.75c-.128 3.566-1.036 6.7-2.383 8.725 3.624-1.36 6.273-4.714 6.612-8.725h-4.229Zm4.23-1.75h-4.23c-.128-3.565-1.036-6.7-2.383-8.725 3.624 1.36 6.273 4.714 6.612 8.725Zm-16.198 0c.128-3.565 1.036-6.7 2.383-8.725-3.624 1.36-6.273 4.714-6.612 8.725h4.229Zm-4.23 1.75c.34 4.011 2.99 7.365 6.613 8.725-1.347-2.026-2.255-5.16-2.383-8.725h-4.23ZM24 12c0-6.627-5.373-12-12-12S0 5.373 0 12s5.373 12 12 12 12-5.373 12-12Z" clip-rule="evenodd"/></svg>
